<?xml version="1.0" standalone="no"?>
<!DOCTYPE svg PUBLIC "-//W3C//DTD SVG 20010904//EN"
 "http://www.w3.org/TR/2001/REC-SVG-20010904/DTD/svg10.dtd">
<svg version="1.0" xmlns="http://www.w3.org/2000/svg"
 width="600.000000pt" height="600.000000pt" viewBox="0 0 600.000000 600.000000"
 preserveAspectRatio="xMidYMid meet">
<metadata>
Created by potrace 1.11, written by Peter Selinger 2001-2013
</metadata>
<g transform="translate(0.000000,600.000000) scale(0.100000,-0.100000)"
fill="#000000" stroke="none">
<path d="M2820 5970 c-986 -54 -1877 -592 -2394 -1449 -544 -899 -564 -2067
-51 -2981 435 -775 1182 -1320 2033 -1484 236 -45 304 -51 602 -51 322 1 451
16 711 81 1079 271 1920 1124 2179 2209 96 401 105 870 24 1275 -189 953 -835
1759 -1725 2153 -315 139 -639 219 -999 247 -146 11 -175 11 -380 0z m44
-1208 l140 -117 73 -264 73 -263 -54 -62 c-112 -127 -217 -230 -212 -211 2 11
19 88 37 171 l32 151 -44 120 -43 120 -106 56 -107 57 -124 -54 c-99 -42 -125
-58 -131 -77 -4 -13 -19 -139 -33 -280 l-25 -257 131 -208 c73 -115 147 -232
165 -260 l32 -52 256 73 256 74 441 -74 442 -74 263 109 263 108 181 -56 182
-56 -39 -36 c-95 -86 -194 -173 -207 -184 -13 -9 -8 -43 40 -246 30 -129 55
-248 55 -265 0 -16 -38 -196 -85 -400 -70 -307 -107 -442 -218 -792 l-133
-423 -52 0 c-61 0 -49 -33 -98 270 -49 307 -124 732 -129 738 -3 2 -256 -3
-563 -12 -307 -9 -576 -16 -599 -16 l-41 0 -28 -102 c-15 -57 -72 -263 -127
-458 -56 -195 -108 -383 -116 -417 l-16 -63 -257 0 -257 0 -11 44 c-6 25 -11
47 -11 50 0 2 86 33 190 68 105 34 190 67 190 72 0 14 -140 860 -143 861 -1 1
-33 8 -71 16 l-68 14 -388 569 -387 569 49 281 c26 155 48 290 48 302 0 19
-18 25 -182 62 -101 23 -189 42 -197 42 -8 0 -25 -10 -38 -22 l-23 -21 0 31
c0 18 -4 32 -10 32 -5 0 -10 -13 -10 -29 0 -27 -2 -29 -60 -35 -33 -4 -60 -11
-60 -17 0 -9 84 -4 119 7 7 2 -15 -27 -49 -66 -34 -38 -66 -70 -71 -70 -5 0
-9 53 -9 117 l0 117 76 127 76 128 156 50 c86 27 230 72 318 100 l161 51 7 47
c3 25 6 63 6 84 l0 39 -50 0 c-50 0 -50 0 -50 32 0 24 10 43 42 75 23 24 51
43 61 43 12 0 17 5 14 13 -3 8 -2 19 3 26 5 10 49 -15 157 -87 l150 -100 143
99 c79 54 149 99 155 100 5 0 75 6 155 13 80 8 170 14 200 14 l55 1 139 -117z
m-1294 -92 c0 -14 -7 -20 -22 -20 -20 0 -21 1 -3 20 10 11 20 20 22 20 1 0 3
-9 3 -20z m2607 -3444 c-5 -12 -113 -43 -121 -35 -3 2 -6 17 -8 33 -3 27 0 30
62 51 l65 22 3 -30 c2 -16 1 -34 -1 -41z m-138 -28 c1 -12 -14 -22 -46 -33
-45 -14 -46 -15 -10 -10 21 4 44 8 51 11 9 3 17 -9 24 -35 l10 -41 -104 0
-103 0 -10 38 c-6 20 -11 42 -11 47 0 6 42 24 93 41 98 32 104 31 106 -18z
m141 -53 l0 -55 -50 0 c-48 0 -49 1 -59 37 -6 20 -8 39 -6 41 2 3 28 10 57 18
29 7 54 13 56 13 1 1 2 -24 2 -54z"/>
<path d="M2260 1081 c0 -10 19 -25 25 -20 1 2 -3 10 -11 17 -8 7 -14 8 -14 3z"/>
</g>
</svg>
